<svg width="12" height="8" viewBox="0 0 12 8" fill="none" xmlns="http://www.w3.org/2000/svg">
<path d="M11.7431 7.84733C11.6401 7.84733 11.5457 7.7884 11.5052 7.69169C11.4755 7.62151 10.7332 5.95664 7.95816 5.62691C7.38012 5.55673 6.68781 5.52075 5.84705 5.51445V7.58957C5.84705 7.68539 5.79532 7.77221 5.7103 7.81809C5.62573 7.86218 5.52452 7.85588 5.44579 7.80325L0.11426 4.2144C0.0422852 4.16627 0 4.0853 0 4.00028C0 3.91436 0.0422852 3.83609 0.11426 3.7857L5.44804 0.196409C5.52677 0.141978 5.62708 0.138379 5.71255 0.183363C5.79802 0.229247 5.84885 0.316067 5.84885 0.409184V2.34036C7.00855 2.49151 12 3.38849 12 7.59182C12 7.71373 11.9141 7.82034 11.7935 7.84463C11.7769 7.84733 11.7593 7.84733 11.7431 7.84733Z" fill="#22B14C"/>
</svg>
