<svg width="12" height="8" viewBox="0 0 12 8" fill="none" xmlns="http://www.w3.org/2000/svg">
<path d="M0.256861 7.84733C0.359875 7.84733 0.454341 7.7884 0.494827 7.69169C0.524517 7.62151 1.26676 5.95664 4.04184 5.62691C4.61988 5.55673 5.31219 5.52075 6.15295 5.51445V7.58957C6.15295 7.68539 6.20468 7.77221 6.2897 7.81809C6.37427 7.86218 6.47548 7.85588 6.55421 7.80325L11.8857 4.2144C11.9577 4.16627 12 4.0853 12 4.00028C12 3.91436 11.9577 3.83609 11.8857 3.7857L6.55196 0.196409C6.47323 0.141978 6.37292 0.138379 6.28745 0.183363C6.20198 0.229247 6.15115 0.316067 6.15115 0.409184V2.34036C4.99145 2.49151 0 3.38849 0 7.59182C0 7.71373 0.0859203 7.82034 0.206478 7.84463C0.223123 7.84733 0.240666 7.84733 0.256861 7.84733Z" fill="#22B14C"/>
</svg>
