<svg width="130" height="40" viewBox="0 0 130 40" fill="none" xmlns="http://www.w3.org/2000/svg">
<path fill-rule="evenodd" clip-rule="evenodd" d="M69.808 4.77255L46.1391 1.78882C35.1917 2.23309 24.2446 2.67762 13.2973 3.12189C7.73234 3.34775 0.241536 0.500021 0.241536 9.78882C0.241536 28.728 -1.61747 36.0784 4.9793 38.0099C18.9976 42.1134 25.5767 38.7344 38.7315 37.8822L60.4337 37.7371C65.0678 37.7371 70.3594 39.1707 76.2219 39.1702L108.292 39.8872C112.379 39.8872 116.802 38.4288 122.132 38.4894C124.859 38.5206 126.465 38.2318 127.707 35.8318C128.589 34.1302 130 29.5448 130 26.9878C130 22.3168 128.023 5.64962 126.423 2.78055C122.373 -4.47971 76.9008 4.77255 69.808 4.77255Z" fill="#22B14C"/>
</svg>
