<svg width="130" height="40" viewBox="0 0 130 40" fill="none" xmlns="http://www.w3.org/2000/svg">
    <path fill-rule="evenodd" clip-rule="evenodd" d="M69.7127 4.86655L46.0438 1.88282C35.0965 2.32708 24.1493 2.77162 13.202 3.21588C7.63711 3.44175 0.14632 0.594015 0.14632 9.88282C0.14632 28.822 -1.71268 36.1724 4.88408 38.1039C18.9023 42.2074 25.4815 38.8284 38.6362 37.9762L60.3384 37.8311C64.9725 37.8311 70.264 39.2647 76.1265 39.2642L108.196 39.9812C112.283 39.9812 116.707 38.5228 122.036 38.5834C124.764 38.6146 126.369 38.3257 127.612 35.9258C128.493 34.2241 129.905 29.6388 129.905 27.0818C129.905 22.4108 127.928 5.74362 126.327 2.87455C122.277 -4.38572 76.8055 4.86655 69.7127 4.86655Z" fill="white"/>
    <path fill-rule="evenodd" clip-rule="evenodd" d="M120.615 2.27655C125.752 2.29655 125.927 5.62829 126.931 12.6078C127.407 15.9168 128.713 26.5755 128.148 29.287C126.592 36.748 125.267 36.5024 119.628 36.4331C114.902 36.375 111.038 37.9704 107.284 37.8848L68.3885 36.9971C65.3439 36.9277 63.0902 36.4299 60.7761 36.2579C53.5295 35.7195 48.3885 35.2704 38.6564 35.7046C23.5383 36.3787 26.8682 40.3107 6.65167 36.2957C-0.220135 34.9312 1.62717 26.8467 1.62717 9.54349C1.62717 4.27495 5.87538 3.88215 9.03308 3.72989C21.1898 3.14429 33.3722 3.08722 45.5831 3.59895C49.9105 3.78002 55.7816 5.45042 58.9226 5.37975C62.5753 5.29735 66.593 6.55548 70.2458 6.47575C82.3306 6.21175 92.3984 3.35415 104.434 2.74215L114.095 2.25069L120.615 2.27655ZM108.272 40.0648C110.288 40.111 114.086 39.0528 122.62 38.6534C126.466 38.4739 127.49 37.4347 129.122 31.692C129.507 30.3357 129.876 28.8792 129.899 27.2656C129.987 21.24 128.93 13.7416 128.148 9.31842C126.981 2.71895 126.609 -0.0319812 121.108 0.0962855C119.016 0.145352 116.609 0.0856188 114.115 0.0968188C110.727 0.112286 107.203 0.257619 104.368 0.570685L69.7566 4.39655C66.595 4.74588 62.612 3.90215 58.665 3.47682C54.2803 3.00429 52.2897 2.00029 46.0426 1.88535C34.9278 1.68109 22.9228 0.771752 11.8351 1.91949C6.34617 2.48775 0.145908 0.182686 0.145908 9.54349C0.145908 28.7883 -1.71346 36.1859 4.88924 38.1603C12.6008 40.4659 15.2824 40.0648 22.3635 40.0648C26.8667 40.0648 33.9426 37.9915 39.1584 37.9707L60.3803 37.8848C62.6887 37.8755 66.7659 38.4027 69.071 38.7197C71.5675 39.0632 74.0934 39.2787 76.6732 39.3382L108.272 40.0648Z" fill="#22B14C"/>
</svg>
