<svg width="100" height="40" viewBox="0 0 100 40" fill="none" xmlns="http://www.w3.org/2000/svg">
<g clip-path="url(#clip0)">
<path fill-rule="evenodd" clip-rule="evenodd" d="M53.6251 4.86694L35.4183 1.8832C26.9973 2.32747 18.5764 2.772 10.1554 3.21627C5.8747 3.44214 0.112554 0.594404 0.112554 9.8832C0.112554 28.8224 -1.31745 36.1728 3.75698 38.1043C14.5403 42.2077 19.6011 38.8288 29.7201 37.9765L46.4141 37.8315C49.9788 37.8315 54.0493 39.2651 58.5588 39.2645L83.2278 39.9816C86.3718 39.9816 89.7746 38.5232 93.8741 38.5837C95.9721 38.6149 97.207 38.3261 98.163 35.9261C98.8408 34.2245 99.9266 29.6392 99.9266 27.0821C99.9266 22.4112 98.4061 5.744 97.1748 2.87494C94.0596 -4.38533 59.0811 4.86694 53.6251 4.86694Z" fill="#1F993F"/>
</g>
<defs>
<clipPath id="clip0">
<rect width="100" height="40" fill="white"/>
</clipPath>
</defs>
</svg>
