<svg width="250" height="40" viewBox="0 0 250 40" fill="none" xmlns="http://www.w3.org/2000/svg">
<g clip-path="url(#clip0)">
<path fill-rule="evenodd" clip-rule="evenodd" d="M134.061 4.86695L88.5435 1.88321C67.491 2.32748 46.4388 2.77201 25.3863 3.21628C14.6845 3.44215 0.279188 0.594412 0.279188 9.88321C0.279188 28.8224 -3.29581 36.1728 9.39026 38.1043C36.3485 42.2077 49.0006 38.8288 74.2981 37.9765L116.033 37.8315C124.945 37.8315 135.121 39.2651 146.395 39.2645L208.067 39.9816C215.927 39.9816 224.434 38.5232 234.683 38.5837C239.928 38.6149 243.015 38.3261 245.405 35.9261C247.1 34.2245 249.814 29.6392 249.814 27.0821C249.814 22.4112 246.013 5.74401 242.935 2.87495C235.147 -4.38532 147.701 4.86695 134.061 4.86695Z" fill="#22B14C"/>
</g>
<defs>
<clipPath id="clip0">
<rect width="250" height="40" fill="white"/>
</clipPath>
</defs>
</svg>
