<svg width="100" height="40" viewBox="0 0 100 40" fill="none" xmlns="http://www.w3.org/2000/svg">
<g clip-path="url(#clip0)">
<path fill-rule="evenodd" clip-rule="evenodd" d="M53.6246 4.86652L35.4178 1.88278C26.9968 2.32705 18.5759 2.77158 10.1549 3.21585C5.87421 3.44172 0.112066 0.593985 0.112066 9.88278C0.112066 28.822 -1.31793 36.1724 3.75649 38.1039C14.5398 42.2073 19.6006 38.8284 29.7196 37.9761L46.4136 37.8311C49.9784 37.8311 54.0488 39.2647 58.5584 39.2641L83.2274 39.9812C86.3714 39.9812 89.7741 38.5228 93.8736 38.5833C95.9716 38.6145 97.2065 38.3257 98.1625 35.9257C98.8404 34.2241 99.9261 29.6388 99.9261 27.0817C99.9261 22.4108 98.4056 5.74358 97.1744 2.87452C94.0591 -4.38575 59.0806 4.86652 53.6246 4.86652Z" fill="white"/>
<path fill-rule="evenodd" clip-rule="evenodd" d="M92.7798 2.27654C96.7317 2.29654 96.8661 5.62827 97.6385 12.6077C98.0047 15.9168 99.0093 26.5755 98.5745 29.2869C97.378 36.748 96.3584 36.5024 92.0213 36.4331C88.3857 36.3749 85.4134 37.9704 82.5257 37.8848L52.606 36.9971C50.264 36.9277 48.5304 36.4299 46.7503 36.2579C41.176 35.7195 37.2214 35.2704 29.7351 35.7045C18.1058 36.3787 20.6673 40.3107 5.11612 36.2957C-0.169879 34.9312 1.25112 26.8467 1.25112 9.54347C1.25112 4.27494 4.51898 3.88214 6.94798 3.72987C16.2993 3.14427 25.6704 3.0872 35.0634 3.59894C38.3921 3.78 42.9084 5.4504 45.3245 5.37974C48.1343 5.29734 51.2248 6.55547 54.0347 6.47574C63.3307 6.21174 71.0751 3.35414 80.3333 2.74214L87.7647 2.25067L92.7798 2.27654ZM83.2853 40.0648C84.8364 40.1109 87.7578 39.0528 94.3223 38.6533C97.2807 38.4739 98.0687 37.4347 99.3241 31.692C99.6205 30.3357 99.9038 28.8792 99.9221 27.2656C99.9895 21.24 99.1765 13.7416 98.5747 9.3184C97.6771 2.71894 97.3911 -0.0319964 93.1597 0.0962702C91.5501 0.145337 89.6984 0.0856036 87.7803 0.0968036C85.1738 0.11227 82.4634 0.257604 80.2828 0.57067L53.6584 4.39654C51.2264 4.74587 48.1625 3.90214 45.1264 3.4768C41.7535 3.00427 40.2223 2.00027 35.4168 1.88534C26.867 1.68107 17.6324 0.771737 9.10341 1.91947C4.88112 2.48774 0.111692 0.182671 0.111692 9.54347C0.111692 28.7883 -1.31859 36.1859 3.76041 38.1603C9.69241 40.4659 11.7551 40.0648 17.2021 40.0648C20.6661 40.0648 26.1091 37.9915 30.1213 37.9707L46.4458 37.8848C48.2215 37.8755 51.3578 38.4027 53.131 38.7197C55.0514 39.0632 56.9944 39.2787 58.9788 39.3381L83.2853 40.0648Z" fill="#22B14C"/>
</g>
<defs>
<clipPath id="clip0">
<rect width="100" height="40" fill="white"/>
</clipPath>
</defs>
</svg>
