<svg width="16" height="18" viewBox="0 0 16 18" fill="none" xmlns="http://www.w3.org/2000/svg">
<path d="M10.3335 18H3.61865C2.06779 18 0.806152 16.7384 0.806152 15.1875V5.66016C0.806152 4.1093 2.06779 2.84766 3.61865 2.84766H10.3335C11.8844 2.84766 13.146 4.1093 13.146 5.66016V15.1875C13.146 16.7384 11.8844 18 10.3335 18ZM3.61865 4.25391C2.84329 4.25391 2.2124 4.8848 2.2124 5.66016V15.1875C2.2124 15.9629 2.84329 16.5938 3.61865 16.5938H10.3335C11.1089 16.5938 11.7397 15.9629 11.7397 15.1875V5.66016C11.7397 4.8848 11.1089 4.25391 10.3335 4.25391H3.61865ZM15.9585 13.4297V2.8125C15.9585 1.26164 14.6969 0 13.146 0H5.34131C4.95294 0 4.63818 0.314758 4.63818 0.703125C4.63818 1.09149 4.95294 1.40625 5.34131 1.40625H13.146C13.9214 1.40625 14.5522 2.03714 14.5522 2.8125V13.4297C14.5522 13.8181 14.867 14.1328 15.2554 14.1328C15.6437 14.1328 15.9585 13.8181 15.9585 13.4297Z" fill="white"/>
</svg>
