<svg width="138" height="126" viewBox="0 0 138 126" fill="none" xmlns="http://www.w3.org/2000/svg">
<path d="M66.2993 92.1777C64.5515 92.6907 63.1426 93.9983 62.1085 96.0677C61.0485 98.1948 60.7039 100.073 61.055 101.815C61.287 102.965 61.7827 104.199 62.3808 105.115C63.9625 107.544 66.5887 108.936 69.5835 108.936C71.2021 108.936 72.8506 108.53 74.3523 107.759C76.7523 106.527 78.4748 104.362 78.9589 101.964C79.3806 99.8815 78.8302 97.8018 77.4114 96.107C74.8047 92.9927 69.7904 91.1561 66.2993 92.1777ZM72.7166 100.64C72.6876 101 72.2081 101.635 71.2038 102.235C69.9552 102.984 68.3607 102.644 67.5913 101.466C67.1607 100.807 67.2077 99.6151 67.6917 98.8636C67.8368 98.6382 68.0557 98.4313 68.6829 98.4313C69.0189 98.4313 69.4284 98.4936 69.9017 98.6177C70.7209 98.8317 71.4927 99.2275 72.1312 99.758C72.3612 99.9517 72.7413 100.32 72.7166 100.64Z" fill="#FF0000"/>
<path d="M61.1008 38.6C60.5004 38.6 59.9287 38.7408 59.4318 39.0069C57.8164 39.4036 56.7324 40.7473 56.7014 42.4402C56.5489 51.1494 58.0056 59.7718 59.4136 68.1099C60.4318 74.1413 61.4858 80.3764 61.9056 86.5439C61.9873 87.7373 62.5877 88.7635 63.5646 89.389C64.2111 89.9902 65.0415 90.3067 65.9823 90.3067H72.2647C73.8742 90.3067 75.1792 89.3488 75.6516 87.8432C75.906 87.3922 76.0648 86.9038 76.12 86.3851C76.7238 80.7569 77.3886 75.1356 78.0533 69.5159C79.0536 61.0626 80.088 52.3187 80.8885 43.6875C80.981 42.6932 80.695 41.7726 80.0809 41.0993C79.4466 40.403 78.4899 40.0032 77.4594 40.002C77.3109 39.9645 77.1572 39.9363 76.9956 39.9158C71.7846 39.2809 66.4991 38.8401 61.2847 38.606L61.1008 38.6ZM73.2743 46.8126C72.5319 54.3203 71.6358 61.916 70.7687 69.2743C70.2283 73.8522 69.6908 78.43 69.1828 83.0135H68.9002C68.3823 77.833 67.511 72.6541 66.6661 67.6295C65.4792 60.572 64.255 53.2919 64.029 46.0516C67.1012 46.2355 70.1979 46.4896 73.2743 46.8126Z" fill="#FF0000"/>
<path d="M73.9508 3.86195C73.7268 3.12207 73.296 2.46842 72.7368 1.93571C71.8598 0.91326 70.7124 0.50946 69.5707 0.554706C68.427 0.509175 67.2819 0.91326 66.404 1.93571C65.8432 2.46814 65.4126 3.12207 65.1892 3.86195C64.6178 5.75915 62.9221 7.80263 61.9193 9.51772C60.7901 11.4482 59.639 13.3665 58.4939 15.2885C56.2057 19.127 53.8799 22.9427 51.5419 26.7503C46.8674 34.3664 42.0849 41.9157 37.4066 49.529C28.0529 64.7468 18.8699 80.0377 10.7125 95.9391C8.4229 100.401 6.11164 104.898 4.09947 109.49C2.52666 113.08 -4.22384 122.805 4.00044 123.663C47.2014 128.166 90.4585 122.771 133.715 122.429C136.484 122.408 137.86 120.317 137.907 118.171C138.087 117.301 138.017 116.344 137.596 115.364C120.644 75.8589 95.2054 41.0295 73.9508 3.86195ZM11.1565 115.456C27.1745 79.7475 49.8331 47.697 69.5707 14.0133C88.9759 47.1318 111.215 78.6636 127.181 113.653C88.4904 114.37 49.8035 118.525 11.1565 115.456Z" fill="#FF0000"/>
</svg>
