<svg width="12" height="12" viewBox="0 0 12 12" fill="none" xmlns="http://www.w3.org/2000/svg">
<path d="M11.5583 7.20967C11.5568 7.20756 11.555 7.20576 11.5534 7.20365C11.5518 7.20158 11.5505 7.19936 11.5489 7.19732C11.5239 7.16545 10.9382 6.42547 10.1604 5.84081V1.63383C10.4287 1.48446 10.6106 1.19915 10.6106 0.872185C10.6107 0.391308 10.2173 0 9.73375 0H0.876899C0.393301 0 0 0.391308 0 0.872185C0 1.19911 0.181867 1.48446 0.45021 1.63383V11.2525C0.45021 11.6653 0.786744 12 1.20166 12H9.40892C9.82387 12 10.1604 11.6653 10.1604 11.2525V8.97522C9.95481 8.9159 9.72371 8.83509 9.45872 8.72991C9.21832 8.63453 8.95065 8.51868 8.65741 8.38345V10.505H1.95324V1.82736H1.97609C2.79343 2.63566 3.80183 3.68413 4.49934 3.06806C4.88988 2.72315 5.21598 1.76291 5.96481 2.13061C7.06178 2.66925 6.11944 3.87512 6.02879 4.61763C5.81092 6.39936 7.9043 5.91413 7.87385 4.33848C7.85029 3.1147 7.46636 2.33406 7.92608 1.82739H8.65751V6.62564C8.99281 6.79183 10.1605 7.2337 10.1605 7.2337V6.99588C10.5426 7.35721 10.8101 7.68622 10.8478 7.73322C10.909 7.81733 10.9566 7.88843 10.9931 7.94761C10.5747 7.85512 9.59532 7.52077 7.40213 6.36978C6.37113 5.82874 5.38544 5.27177 4.77069 4.91797C4.77104 4.90812 4.77143 4.89823 4.77143 4.88831C4.77143 4.41306 4.38273 4.0264 3.9049 4.0264C3.42706 4.0264 3.03836 4.41306 3.03836 4.88831C3.03836 5.36356 3.42706 5.75022 3.9049 5.75022C4.04418 5.75022 4.17579 5.71719 4.2925 5.65886C4.96377 6.04552 6.09872 6.68714 7.2574 7.28738C8.32805 7.842 9.21217 8.25476 9.88506 8.51422C10.4878 8.74662 10.9244 8.8612 11.2467 8.8612C11.5097 8.8612 11.6966 8.78479 11.8353 8.63379C12.2605 8.17065 11.7503 7.47246 11.5583 7.20967Z" fill="#22B14C"/>
</svg>
