<svg width="20" height="22" viewBox="0 0 20 22" fill="none" xmlns="http://www.w3.org/2000/svg">
<path fill-rule="evenodd" clip-rule="evenodd" d="M7.64255 10.9583C7.59712 10.9588 5.78033 10.5931 5.7338 10.5743C5.81136 10.059 5.95293 10.18 6.54309 10.18C7.34365 10.18 7.65184 10.2388 7.64255 10.9583ZM2.3907 1.91673H0.729741L1.09589 10.6917C1.3451 13.0833 0.722576 16.0621 0.450684 18.5038L4.66458 20.3354C5.59175 20.8087 8.5365 22.6173 8.5365 20.465L8.53681 8.66193L7.90933 0.576416C6.92664 0.591127 3.89425 1.91673 2.3907 1.91673Z" fill="#B87A57"/>
<path fill-rule="evenodd" clip-rule="evenodd" d="M9.03431 16.5875C9.36644 16.595 9.93589 16.6683 10.1248 16.8295C10.5476 17.1906 10.6827 19.2043 10.7157 19.9439L9.09352 20.0487L9.03431 19.454V16.5875ZM9.03431 12.7094C9.674 12.8495 10.1411 12.9878 10.699 13.212C11.7649 13.6403 12.4336 13.4599 12.1509 14.201C12.1485 14.2073 12.0377 14.435 11.995 14.5134C11.0145 16.3124 11.1851 16.9331 9.03431 15.9236V12.7094ZM11.4761 16.5875C11.9242 15.3383 12.1147 14.8322 12.9877 14.263C13.4656 13.9514 13.6339 13.4834 14.0057 12.8663C14.1636 12.6044 14.4789 12.076 14.6175 11.8012C14.9585 11.125 14.7444 11.1559 14.9582 10.4611C15.4542 8.8497 17.6741 9.46381 18.1696 9.50571C18.1696 10.715 17.751 10.8936 17.3156 11.6741C16.9605 12.3104 16.6739 13.0739 16.3174 13.6981C15.677 14.8193 14.454 16.2578 14.0005 17.4807L11.4761 16.5875ZM8.53596 2.25521H10.6953V4.95302C10.6953 5.66035 10.8613 5.51956 10.8613 5.96473C10.8613 9.02392 11.076 9.66537 10.4479 12.6268C9.97873 12.2768 9.21203 12.454 9.03431 12.0349C9.03431 10.8924 9.11093 9.44487 9.02077 8.33913C8.95337 7.51331 8.53596 5.77868 8.53596 5.12172V2.25521ZM2.39048 1.91741C3.89404 1.91741 6.92642 0.59181 7.90911 0.577099L8.53659 8.66262L8.53628 20.4657C8.53628 22.618 5.59153 20.8094 4.66436 20.3361L0.450465 18.5045C0.722357 16.0628 1.34488 13.084 1.09567 10.6924L0.729522 1.91741H2.39048ZM8.47187 -0.0402882C7.96045 -0.0821829 0.373535 1.69938 0.363693 1.71385C-0.191587 2.5316 0.778105 9.77611 0.710073 11.1681C0.652671 12.3403 0.310306 14.3052 0.146368 15.656C-0.10765 17.7495 -0.396235 18.7883 1.33165 19.3391C3.30458 19.9682 6.68106 22.2261 8.50879 21.9328L9.03439 20.4756L11.3743 20.3836L10.8961 16.825L14.0328 17.9365C14.855 16.9485 18.9841 10.4866 18.7093 9.27913C17.4815 8.4665 15.3796 8.84659 14.698 9.85534C14.2974 10.4481 14.39 11.125 14.0176 11.8626C13.6358 12.6188 13.3095 12.8205 13.0593 13.4904L10.9728 12.6869L11.2538 1.85984C10.8467 1.67468 9.10384 1.75511 8.54675 1.74911L8.47187 -0.0402882Z" fill="black"/>
<path fill-rule="evenodd" clip-rule="evenodd" d="M11.4761 16.5869L14.0004 17.4801C14.4539 16.2571 15.677 14.8186 16.3174 13.6975C16.6738 13.0732 16.9604 12.3098 17.3155 11.6734C17.7509 10.8929 18.1695 10.7143 18.1695 9.50506C17.6741 9.46316 15.4541 8.84905 14.9581 10.4604C14.7443 11.1553 14.9584 11.1243 14.6174 11.8005C14.4789 12.0753 14.1635 12.6037 14.0056 12.8657C13.6338 13.4827 13.4655 13.9508 12.9877 14.2623C12.1146 14.8315 11.9241 15.3377 11.4761 16.5869Z" fill="#804000"/>
<path fill-rule="evenodd" clip-rule="evenodd" d="M8.53613 5.12115C8.53613 5.77811 8.95354 7.51274 9.02094 8.33857C9.1111 9.4443 9.03448 10.8918 9.03448 12.0343C9.2122 12.4534 9.9789 12.2762 10.448 12.6262C11.0762 9.6648 10.8615 9.02335 10.8615 5.96416C10.8615 5.51899 10.6954 5.65978 10.6954 4.95245V2.25464H8.53613V5.12115Z" fill="#3F3F3F"/>
<path fill-rule="evenodd" clip-rule="evenodd" d="M9.03418 15.923C11.185 16.9324 11.0144 16.3118 11.9948 14.5128C12.0376 14.4343 12.1484 14.2066 12.1507 14.2004C12.4335 13.4592 11.7648 13.6397 10.6988 13.2113C10.141 12.9871 9.67387 12.8489 9.03418 12.7087V15.923Z" fill="#7F7F7F"/>
<path fill-rule="evenodd" clip-rule="evenodd" d="M9.03418 19.4534L9.09339 20.0481L10.7156 19.9433C10.6826 19.2037 10.5475 17.19 10.1247 16.8289C9.93576 16.6677 9.36631 16.5944 9.03418 16.5869V19.4534Z" fill="#3F3F3F"/>
<path fill-rule="evenodd" clip-rule="evenodd" d="M5.7334 10.5744C5.77993 10.5932 7.59672 10.9589 7.64215 10.9584C7.65145 10.2389 7.34325 10.1801 6.5427 10.1801C5.95253 10.1801 5.81096 10.0591 5.7334 10.5744Z" fill="black"/>
<path fill-rule="evenodd" clip-rule="evenodd" d="M18.5225 7.70804C19.324 8.0324 20.2707 7.29365 19.8513 6.51196C19.2059 6.81306 19.7554 6.60894 19.2541 7.06211C18.602 7.65183 18.8792 6.94202 18.5225 7.70804Z" fill="black"/>
<path fill-rule="evenodd" clip-rule="evenodd" d="M15.1797 7.1444L15.2401 7.99013C15.674 7.80808 15.678 8.139 15.678 7.31302V7.1444L15.5819 6.33545C15.1672 6.52054 15.1011 6.29723 15.1797 7.1444Z" fill="black"/>
<path fill-rule="evenodd" clip-rule="evenodd" d="M16.9293 7.65023C17.4034 7.44076 17.2056 7.84827 17.4172 7.03021C17.5602 6.47758 17.5549 6.54346 17.36 6.1748C16.9621 6.36637 17.1141 5.99411 16.9095 6.70816C16.7842 7.1451 16.8349 7.30956 16.9293 7.65023Z" fill="black"/>
</svg>
