<svg width="300" height="40" viewBox="0 0 300 40" fill="none" xmlns="http://www.w3.org/2000/svg">
<g clip-path="url(#clip0)">
<path fill-rule="evenodd" clip-rule="evenodd" d="M160.873 4.86652L106.252 1.88278C80.9893 2.32705 55.7267 2.77158 30.4637 3.21585C17.6216 3.44172 0.335175 0.593985 0.335175 9.88278C0.335175 28.822 -3.95483 36.1724 11.2685 38.1039C43.6183 42.2073 58.8009 38.8284 89.1579 37.9761L139.24 37.8311C149.934 37.8311 162.145 39.2647 175.674 39.2641L249.681 39.9812C259.113 39.9812 269.321 38.5228 281.62 38.5833C287.914 38.6145 291.618 38.3257 294.486 35.9257C296.52 34.2241 299.777 29.6388 299.777 27.0817C299.777 22.4108 295.216 5.74358 291.522 2.87452C282.176 -4.38575 177.241 4.86652 160.873 4.86652Z" fill="white"/>
<path fill-rule="evenodd" clip-rule="evenodd" d="M278.342 2.27654C290.198 2.29654 290.601 5.62827 292.918 12.6077C294.016 15.9168 297.03 26.5755 295.726 29.2869C292.136 36.748 289.078 36.5024 276.066 36.4331C265.16 36.3749 256.243 37.9704 247.58 37.8848L157.82 36.9971C150.794 36.9277 145.594 36.4299 140.253 36.2579C123.53 35.7195 111.667 35.2704 89.2078 35.7045C54.32 36.3787 62.0042 40.3107 15.3508 36.2957C-0.507181 34.9312 3.75582 26.8467 3.75582 9.54347C3.75582 4.27494 13.5594 3.88214 20.8464 3.72987C48.9002 3.14427 77.0137 3.0872 105.193 3.59894C115.179 3.78 128.728 5.4504 135.976 5.37974C144.405 5.29734 153.677 6.55547 162.107 6.47574C189.995 6.21174 213.228 3.35414 241.002 2.74214L263.297 2.25067L278.342 2.27654ZM249.858 40.0648C254.512 40.1109 263.276 39.0528 282.969 38.6533C291.845 38.4739 294.209 37.4347 297.975 31.692C298.864 30.3357 299.714 28.8792 299.769 27.2656C299.971 21.24 297.532 13.7416 295.727 9.3184C293.034 2.71894 292.176 -0.0319964 279.482 0.0962702C274.653 0.145337 269.098 0.0856036 263.343 0.0968036C255.524 0.11227 247.393 0.257604 240.851 0.57067L160.978 4.39654C153.682 4.74587 144.49 3.90214 135.382 3.4768C125.263 3.00427 120.669 2.00027 106.253 1.88534C80.6034 1.68107 52.8997 0.771737 27.3127 1.91947C14.6458 2.48774 0.337533 0.182671 0.337533 9.54347C0.337533 28.7883 -3.95332 36.1859 11.2837 38.1603C29.0797 40.4659 35.2678 40.0648 51.6088 40.0648C62.0008 40.0648 78.3298 37.9915 90.3662 37.9707L139.34 37.8848C144.667 37.8755 154.076 38.4027 159.395 38.7197C165.157 39.0632 170.986 39.2787 176.939 39.3381L249.858 40.0648Z" fill="#22B14C"/>
</g>
<defs>
<clipPath id="clip0">
<rect width="300" height="40" fill="white"/>
</clipPath>
</defs>
</svg>
