<svg width="12" height="12" viewBox="0 0 12 12" fill="none" xmlns="http://www.w3.org/2000/svg">
<path d="M11.9145 3.11326L8.8866 0.0853364C8.77282 -0.0284455 8.58831 -0.0284455 8.47453 0.0853364L6.73999 1.81995L10.1799 5.25992L11.9145 3.52534C12.0283 3.41148 12.0283 3.22705 11.9145 3.11326Z" fill="#22B14C"/>
<path d="M3.67941 8.63408C3.55014 8.76332 3.34065 8.76332 3.21138 8.63408C3.08214 8.50478 3.08214 8.29532 3.21138 8.16605L7.56369 3.81368L6.15504 2.40503L0.866985 7.69318C0.716986 7.84303 0.606986 8.03296 0.572659 8.22736L0.010988 11.4099C-0.0575573 11.7983 0.201715 12.0575 0.590113 11.989L3.77261 11.4274C3.96687 11.3931 4.15665 11.2833 4.30636 11.1335L9.595 5.84492L8.03176 4.28165L3.67941 8.63408ZM2.25244 10.606L1.39393 9.74757L1.55673 8.8251L3.17491 10.4433L2.25244 10.606Z" fill="#22B14C"/>
</svg>
