<svg width="14" height="14" viewBox="0 0 14 14" fill="none" xmlns="http://www.w3.org/2000/svg">
<path d="M7.39979 13.6091C7.00371 13.6035 6.23987 13.6912 5.39461 13.7882C4.2933 13.9147 3.05378 14.057 2.30939 14.0293L7.39979 13.6091ZM7.39979 13.6091C10.8724 13.6592 11.7443 13.4426 12.462 12.895L7.39979 13.6091ZM0.551903 6.98386L0.551906 6.98382C0.594167 6.38535 0.679311 5.76113 0.770478 5.09276C0.797379 4.89554 0.824804 4.69448 0.851806 4.4891C0.968863 3.59878 1.07479 2.64676 1.07479 1.65558C1.07479 1.50988 1.10655 1.42317 1.1415 1.36701C1.17718 1.30967 1.23706 1.2508 1.3443 1.19437C1.57867 1.07104 1.95709 1.00016 2.49381 0.96892C2.84949 0.948214 3.2289 0.946052 3.63542 0.943736C3.83608 0.942593 4.04335 0.941412 4.25763 0.937944C4.88733 0.927754 5.55572 0.897281 6.17644 0.776192C7.56633 0.505057 9.00632 0.477176 10.0998 0.610976C10.6493 0.678217 11.0863 0.783336 11.378 0.904304C11.5246 0.965077 11.612 1.02072 11.6571 1.06C11.662 1.06422 11.6659 1.0679 11.6692 1.07104L11.6866 1.20064L11.8085 1.32067C11.8646 1.37596 11.9562 1.50832 12.0691 1.75091C12.1773 1.98329 12.2886 2.28056 12.3993 2.62999C12.6205 3.32809 12.8283 4.19992 13.0003 5.10371C13.172 6.00634 13.3061 6.93035 13.3821 7.73018C13.4593 8.5431 13.4724 9.18722 13.4204 9.55087L13.4136 9.59854L13.416 9.64664C13.4509 10.3412 13.2436 11.0137 12.9627 11.5443C12.8231 11.8081 12.6702 12.0272 12.5312 12.1878C12.3822 12.36 12.2809 12.428 12.2546 12.44L12.2034 12.4634L12.1587 12.4975C11.5996 12.9241 10.9092 13.1597 7.40699 13.1092H7.40695C6.97544 13.103 6.17176 13.1955 5.33621 13.2916C5.20767 13.3064 5.07837 13.3213 4.94956 13.3359C3.96514 13.4476 2.984 13.548 2.36864 13.531C1.88695 13.4275 1.54105 13.221 1.28166 12.9338C1.00919 12.6321 0.805416 12.2114 0.668059 11.6511C0.389205 10.5136 0.413824 8.93704 0.551903 6.98386ZM11.6814 1.08447C11.6814 1.08447 11.681 1.08406 11.6805 1.08323L11.6814 1.08447Z" fill="white" stroke="#22B14C"/>
</svg>
